<?xml version="1.0" encoding="utf-8"?>
<!-- Generator: Adobe Illustrator 24.3.0, SVG Export Plug-In . SVG Version: 6.00 Build 0)  -->
<svg version="1.1" id="Layer_1" xmlns="http://www.w3.org/2000/svg" xmlns:xlink="http://www.w3.org/1999/xlink" x="0px" y="0px"
	 viewBox="0 0 90 90" style="enable-background:new 0 0 90 90;" xml:space="preserve">
<style type="text/css">
	.st0{fill:#FBD124;}
	.st1{fill:url(#SVGID_1_);}
	.st2{fill:#E2C062;stroke:#2D4472;stroke-width:0.75;stroke-miterlimit:10;}
</style>
<path class="st0" d="M13.6,23.2"/>
<linearGradient id="SVGID_1_" gradientUnits="userSpaceOnUse" x1="40.7516" y1="54.8099" x2="68" y2="54.8099">
	<stop  offset="2.064656e-07" style="stop-color:#1672A3"/>
	<stop  offset="1" style="stop-color:#1C2956"/>
</linearGradient>
<path class="st1" d="M68,40.9c-4.7,5-8.2,9.1-10.5,12.2c0,0-4.7,6.1-10,10.4c-0.8,0.6-1.7,1.3-2.8,1.9c-1.5,0.8-2.9,1.3-3.7,1.5
	l-0.2,1.8l19.1-0.3L68,40.9z"/>
<path class="st2" d="M74.3,44.5l-8.8,29.7v0.4H52.3l0,0H28.2v-0.4l-8.8-29.7l-1.3-3.1c0-1.3,1.2-2.3,2.7-2.3h15.5L12.2,16.6
	c-0.6-0.6-0.6-1.4,0-1.8l1.6-1.5c0.6-0.6,1.5-0.6,2,0L43,38.8c0.1,0.1,0.1,0.2,0.2,0.3h0.3v4.6h-17l7.4,22c0.5,1.4,1.9,2.3,3.3,2.3
	h4.1l0,0h15c1.6,0,3-0.9,3.3-2.3l7.5-22.1h-3.6v-5.7h8.9c1.7,0,3.1,1.3,3.1,2.9L74.3,44.5z"/>
</svg>
