<?xml version="1.0" encoding="utf-8"?>
<!-- Generator: Adobe Illustrator 24.3.0, SVG Export Plug-In . SVG Version: 6.00 Build 0)  -->
<svg version="1.1" id="Layer_1" xmlns="http://www.w3.org/2000/svg" xmlns:xlink="http://www.w3.org/1999/xlink" x="0px" y="0px"
	 viewBox="0 0 90 67.5" style="enable-background:new 0 0 90 67.5;" xml:space="preserve">
<style type="text/css">
	.st0{enable-background:new    ;}
	.st1{fill:#DBA02D;}
	.st2{fill:#FCD122;}
	.st3{fill:none;}
	.st4{fill:#101B2A;}
</style>
<g>
	<g>
		<g class="st0">
			<g>
				<polygon class="st1" points="76.9,3.9 77.1,11.3 63.1,25.5 62.7,18.9 				"/>
			</g>
			<g>
				<polygon class="st1" points="62.7,18.9 63.1,26.3 57.7,23.4 57.3,16 				"/>
			</g>
			<g>
				<polygon class="st2" points="76.9,3.9 62.7,18.9 57.3,16 71.5,1 				"/>
			</g>
		</g>
	</g>
</g>
<g>
	<path class="st3" d="M75.6,25.3l-6.5,8.3L49.7,18.4c-2.6,0.1-5.2,0.3-7.8,0.7c-9.6,1.5-18.3,5.1-24.4,10.1
		c-4.7,3.9-7.5,8.2-8.2,12.6c2,4.1,6.2,7.4,11.9,9.6c7.1,2.7,16.5,3.7,26.4,2.1C57.2,52,65.9,48.4,72,43.4c4.8-3.9,7.5-8.2,8.2-12.6
		C79.2,28.8,77.7,26.9,75.6,25.3z"/>
	<polygon class="st4" points="36.2,8.1 36.2,8.1 36.2,8.1 	"/>
	<path class="st1" d="M80.2,30.8c0.2-1.3,0.2-2.6,0-3.8l0,0c-0.3-1.8-0.9-3.4-1.9-5l-2.6,3.3C77.7,26.9,79.2,28.8,80.2,30.8z"/>
	<path class="st1" d="M17.4,29.3c6.2-5,14.8-8.6,24.4-10.1c2.6-0.4,5.2-0.6,7.8-0.7l-1.4-1.1l4.8-6.2c-0.6,0-1.2-0.1-1.7-0.1
		c-3.5-0.1-7,0.2-10.6,0.8c-2.4,0.4-4.7,0.9-7,1.5c-4.5,1.3-8.7,3-12.4,5.1c-1.8,1.1-3.5,2.2-5.1,3.5c-1.2,0.9-2.2,1.9-3.1,2.9
		c-0.3,0.3-0.6,0.7-0.9,1c-0.6,0.7-1.1,1.3-1.5,2c-0.9,1.4-1.6,2.8-2.1,4.2c-0.2,0.7-0.4,1.4-0.5,2.1c-0.1,0.4-0.1,0.7-0.1,1.1
		C8,35.9,8,36.6,8,37.3c0,0.3,0.1,0.7,0.1,1c0.2,1.2,0.6,2.4,1.1,3.5C9.9,37.5,12.7,33.1,17.4,29.3z"/>
	<polygon class="st4" points="43.8,6.9 43.8,6.9 43.8,6.9 	"/>
	<path class="st1" d="M88.9,33l-1.1-7.3c1.1,6.7-2.4,13.8-9.8,19.9c-7.5,6.1-18,10.4-29.6,12.3c-12,1.9-23.4,0.8-32.1-2.5
		c-0.2-0.1-0.4-0.1-0.5-0.2c-4.1-1.6-7.5-3.8-10.1-6.3c-2.7-2.7-4.5-5.8-5-9.3l1.1,7.3c1.1,7,7.1,12.5,15.7,15.8
		c8.7,3.3,20,4.4,32.1,2.5c11.7-1.8,22.2-6.2,29.6-12.3C86.5,46.9,90,39.8,88.9,33z"/>
	<path class="st2" d="M15.7,55.2c0.2,0.1,0.4,0.2,0.5,0.2c8.7,3.3,20,4.4,32,2.5c11.6-1.8,22.2-6.2,29.6-12.3
		c7.5-6.1,10.9-13.1,9.8-19.9c-0.6-3.5-2.3-6.7-5.2-9.4L78.2,22c1,1.5,1.7,3.2,1.9,5l0,0c0.2,1.3,0.2,2.6,0,3.8
		c-0.6,4.3-3.4,8.7-8.2,12.6c-6.2,5-14.8,8.6-24.5,10.1c-9.9,1.6-19.3,0.7-26.4-2.1c-5.6-2.2-9.9-5.5-11.9-9.6
		c-0.5-1.1-0.9-2.2-1.1-3.5c-0.1-0.3-0.1-0.7-0.1-1C8,36.6,8,35.9,8,35.2c0-0.4,0.1-0.7,0.1-1.1c0.1-0.7,0.3-1.4,0.5-2.1
		c0.5-1.4,1.2-2.8,2.1-4.2c0.5-0.7,1-1.4,1.5-2c0.3-0.3,0.6-0.7,0.9-1c0.9-1,2-2,3.1-2.9c1.5-1.3,3.2-2.4,5.1-3.5
		c3.7-2.1,7.8-3.9,12.4-5.1c2.3-0.6,4.6-1.1,7-1.5c3.6-0.6,7.2-0.8,10.6-0.8c0.6,0,1.2,0.1,1.7,0.1l3.5-4.5
		c-4.1-0.3-8.4-0.2-12.7,0.2l0,0l0,0l-7.6,1.2c0,0,0,0,0,0l0,0C26.1,10.2,17,14.3,10.4,19.7c-7.5,6.1-11,13.1-9.8,19.9
		c0.6,3.5,2.3,6.6,5,9.3C8.2,51.4,11.6,53.5,15.7,55.2z"/>
</g>
</svg>
