<?xml version="1.0" encoding="utf-8"?>
<!-- Generator: Adobe Illustrator 24.3.0, SVG Export Plug-In . SVG Version: 6.00 Build 0)  -->
<svg version="1.1" id="Layer_1" xmlns="http://www.w3.org/2000/svg" xmlns:xlink="http://www.w3.org/1999/xlink" x="0px" y="0px"
	 viewBox="0 0 200 200" style="enable-background:new 0 0 200 200;" xml:space="preserve">
<style type="text/css">
	.st0{fill:#44ABE0;stroke:#44ABE0;stroke-miterlimit:10;}
	.st1{fill:#5A7B91;}
	.st2{opacity:0.3;fill:#5F5357;stroke:#44ABE0;stroke-miterlimit:10;}
	.st3{fill:#2C3C47;}
	.st4{fill:#142129;}
	.st5{fill:#FCB536;}
	.st6{fill:none;stroke:#955442;stroke-width:2;stroke-miterlimit:10;}
	.st7{fill:#01B79B;}
	.st8{fill:#F04C44;}
	.st9{fill:#2B6ED4;stroke:#2B6ED4;stroke-width:0.25;stroke-miterlimit:10;}
	.st10{fill:#2B6ED4;stroke:#2B6ED4;stroke-miterlimit:10;}
	.st11{fill:#FCB536;stroke:#FBD124;stroke-miterlimit:10;}
</style>
<ellipse class="st0" cx="99.9" cy="100.7" rx="100.3" ry="100.2"/>
<path class="st1" d="M51,178.9l3.6,2c12-16.6,17.4-24.4,17.9-25.6c0-0.1,0.2-0.6,0.7-0.9c0.8-0.5,1.9,0,2.7,0.4
	c0.7,0.3,1.9,0.6,3.2,0.6c3,0.1,5.3-1.1,7.1-2.1c2.3-1.3,3.8-2.6,6.6-5.1c2.9-2.6,3-3.1,4.4-3.7c3.4-1.5,6.7-0.3,7.1-0.2
	c1.1,0.4,2.4,1.4,4.9,3.5c4.1,3.3,3.9,3.6,5.5,4.6c2.6,1.6,5.1,2,7.3,2.3c1.8,0.3,4.3,0.5,7.4,0.2l17,22.4l2.3,3.2l3.2-2l-15.3-28.5
	l-6.8-4.2h-12.1l-11.1-8.4l-11.4,1.1l-10.7,7.7l-9.8,1.4l-6.5-2.1l-19.8,29.3l3,4.9"/>
<polygon class="st2" points="44.7,183.4 61.5,194 82.1,199.1 114.2,199.5 133.1,195 150,188.5 155.5,183.5 144.1,145 102.3,130.8 
	57.4,148.6 "/>
<path class="st3" d="M101.6,86.3l-39.9-0.5c-16.8,0-30.6,13.8-30.6,30.6v0l-2.1,21l-2.6,27.8l-0.3,1c-0.3,1.2-1.2,5.4,0.9,9.8
	c2.7,5.7,8.2,7.3,9.2,7.6c1.6,0.4,4.9,1.1,8.6-0.2c3.2-1.1,5.1-3.2,6.3-4.5c7.2-8.3,19-26.8,19.8-28l5.5,1c3.7,0,9.2,1,17.4-9l4-1.9
	l1-0.1l2.8-0.4l3.7,0.3l4,1.9c8.2,10,13.7,9,17.4,9l5.5-1c0.7,1.2,12.5,19.7,19.8,28c1.1,1.3,3.1,3.4,6.3,4.5c3.6,1.3,7,0.6,8.6,0.2
	c1-0.3,6.5-2,9.2-7.6c2.1-4.4,1.2-8.5,0.9-9.8l-0.3-1l-2.6-27.8c0,0-2.1-21-2.1-21c0-16.8-13.8-30.6-30.6-30.6l-39.9,0.5"/>
<ellipse class="st4" cx="143.3" cy="112.9" rx="23.1" ry="23.6"/>
<ellipse class="st5" cx="142.9" cy="101.5" rx="6.3" ry="6.2"/>
<path class="st6" d="M30.5,116.1"/>
<ellipse class="st7" cx="154.5" cy="112.5" rx="6.3" ry="6.2"/>
<ellipse transform="matrix(0.5329 -0.8462 0.8462 0.5329 -33.6211 164.5162)" class="st8" cx="132.2" cy="112.7" rx="6.2" ry="6.3"/>
<ellipse transform="matrix(0.5329 -0.8462 0.8462 0.5329 -37.5997 179.0346)" class="st9" cx="143.4" cy="123.6" rx="6.2" ry="6.3"/>
<ellipse class="st1" cx="123.6" cy="134.1" rx="10.6" ry="9.7"/>
<path class="st10" d="M97.6,122.9H87.1c-0.4,0-0.7-0.3-0.7-0.7v-3c0-0.4,0.3-0.7,0.7-0.7h10.5c0.4,0,0.7,0.3,0.7,0.7v3
	C98.3,122.6,98,122.9,97.6,122.9z"/>
<path class="st10" d="M116.5,122.6h-10.5c-0.4,0-0.7-0.3-0.7-0.7v-3c0-0.4,0.3-0.7,0.7-0.7h10.5c0.4,0,0.7,0.3,0.7,0.7v3
	C117.3,122.3,117,122.6,116.5,122.6z"/>
<ellipse class="st4" cx="60.4" cy="112.4" rx="21.5" ry="22.5"/>
<path class="st9" d="M52.4,117.1L52.4,117.1l3.1-3.5c0.3-0.3,0.5-0.7,0.5-1.2V112c0-0.4-0.2-0.8-0.4-1.2l-2.6-2.9
	c-0.3-0.4-0.8-0.6-1.4-0.6h-7.3c-1,0-1.8,0.8-1.8,1.8v6.3c0,1,0.8,1.8,1.8,1.8H52.4z"/>
<path class="st9" d="M55.5,104.8L55.5,104.8l3.5,3.1c0.3,0.3,0.7,0.5,1.2,0.5h0.5c0.4,0,0.8-0.2,1.2-0.4l2.9-2.6
	c0.4-0.3,0.6-0.8,0.6-1.4v-7.3c0-1-0.8-1.8-1.8-1.8h-6.3c-1,0-1.8,0.8-1.8,1.8V104.8z"/>
<path class="st9" d="M68.2,107.8L68.2,107.8l-3.1,3.5c-0.3,0.3-0.5,0.7-0.5,1.2v0.5c0,0.4,0.2,0.8,0.4,1.2l2.6,2.9
	c0.3,0.4,0.8,0.6,1.4,0.6h7.3c1,0,1.8-0.8,1.8-1.8v-6.3c0-1-0.8-1.8-1.8-1.8H68.2z"/>
<path class="st9" d="M65.1,120L65.1,120l-3.5-3c-0.3-0.3-0.8-0.4-1.2-0.4l-0.5,0c-0.4,0-0.8,0.2-1.2,0.5l-2.9,2.6
	c-0.4,0.3-0.6,0.8-0.6,1.4l0.1,7.3c0,1,0.8,1.8,1.8,1.8l6.3-0.1c1,0,1.8-0.8,1.8-1.8L65.1,120z"/>
<ellipse class="st1" cx="78.2" cy="133.9" rx="9.5" ry="9.5"/>
<polygon class="st11" points="93.7,80.7 52.6,80.9 51.9,-4 77.6,44.3 87,11.7 96.8,44.6 101.7,44.5 111.5,11.6 120.8,44.3 146.6,-4 
	145.9,80.9 101.9,80.7 "/>
</svg>
