<?xml version="1.0" encoding="utf-8"?>
<!-- Generator: Adobe Illustrator 24.3.0, SVG Export Plug-In . SVG Version: 6.00 Build 0)  -->
<svg version="1.1" id="Layer_1" xmlns="http://www.w3.org/2000/svg" xmlns:xlink="http://www.w3.org/1999/xlink" x="0px" y="0px"
	 viewBox="0 0 90 90" style="enable-background:new 0 0 90 90;" xml:space="preserve">
<style type="text/css">
	.st0{opacity:6.000000e-02;}
	.st1{fill:#111C2B;}
	.st2{enable-background:new    ;}
	.st3{opacity:0.2;}
	.st4{fill:#FBD124;}
	.st5{fill:#DBA02F;}
	.st6{fill:#FFFFFF;}
	.st7{opacity:0.3;}
	.st8{fill:#A6CEE4;}
	.st9{fill:#C3A41E;}
	.st10{fill:#A28915;}
	.st11{fill:#D5B321;}
	.st12{opacity:0.2;fill:#FBD124;}
	.st13{fill:#C5A51E;}
	.st14{clip-path:url(#SVGID_2_);enable-background:new    ;}
	.st15{fill:#A88E17;}
	.st16{fill:#AC9218;}
	.st17{fill:#B19519;}
	.st18{fill:#B5991A;}
	.st19{fill:#B99C1B;}
	.st20{fill:#BDA01C;}
	.st21{clip-path:url(#SVGID_4_);enable-background:new    ;}
	.st22{fill:#947D10;}
	.st23{clip-path:url(#SVGID_6_);enable-background:new    ;}
	.st24{fill:#A48B16;}
	.st25{fill:#A08714;}
	.st26{fill:#9C8413;}
	.st27{fill:#988112;}
	.st28{fill:#D6B321;}
	.st29{fill:#9D8513;}
	.st30{fill:#907A0E;}
	.st31{fill:#BA9D1C;}
	.st32{fill:#E6C023;}
	.st33{opacity:5.000000e-02;fill:#111C2B;}
	.st34{fill:#213253;}
	.st35{font-family:'MyriadPro-Regular';}
	.st36{font-size:7px;}
	.st37{opacity:0.2;fill:#A6CEE4;}
</style>
<g class="st0">
	<path class="st1" d="M33.4,48.7L33.4,48.7l0.1,0.1l0.7,0.4l0,0c0.1,0,0.1,0.1,0.2,0.1c0.1,0,0.2-0.1,0.2-0.1c0,0,0,0,0.1-0.1
		l6.8,3.9h5.3l10.3,0.2c0.1,0,0.1-0.1,0.1-0.1l0.2-0.5l-10.5,0l0,0h-5.3l-6.7-3.9c0,0,0,0,0,0l0-0.1c0-0.1,0-0.2-0.1-0.3
		c-0.1-0.1-0.1-0.1-0.2-0.2l0,0l0,0l-0.6-0.3l-0.1-0.1l-0.1-0.1h0l0,0l0,0c-0.2-0.1-0.3-0.1-0.4,0c0,0-0.1,0.1-0.1,0.2
		c-0.1,0.1-0.1,0.2-0.1,0.3l0,0.1c0,0.1,0,0.2,0.1,0.3C33.2,48.6,33.3,48.7,33.4,48.7z"/>
	<path class="st1" d="M30.9,50.1L30.9,50.1l0.1,0.1l0.7,0.4l0,0c0.1,0,0.1,0.1,0.2,0.1c0.1,0,0.2-0.1,0.2-0.1c0,0,0,0,0.1-0.1
		l14.9,8.4l0,0h5.3l1.4,0.8h0.7l-1.9-1.1l0,0h-5.3l-14.9-8.4c0,0,0,0,0,0l0-0.1c0-0.1,0-0.2-0.1-0.3c-0.1-0.1-0.1-0.1-0.2-0.2v0l0,0
		l-0.6-0.3l-0.1-0.1l-0.1-0.1h0l0,0v0c-0.2-0.1-0.3-0.1-0.4,0c0,0-0.1,0.1-0.1,0.2c-0.1,0.1-0.1,0.2-0.1,0.3l0,0.1
		c0,0.1,0,0.2,0.1,0.3C30.8,50.1,30.8,50.1,30.9,50.1z"/>
	<polygon class="st1" points="29.2,52.1 29.2,52.1 29.2,52.1 	"/>
	<path class="st1" d="M28.4,51.6L28.4,51.6l0.1,0.1l0.7,0.4c0.1,0,0.1,0.1,0.2,0.1c0.1,0,0.2-0.1,0.2-0.1c0,0,0,0,0.1-0.1l13.1,7.7
		h0.7l-13.7-8c0,0,0,0,0,0l0-0.1c0-0.1,0-0.2-0.1-0.3c-0.1-0.1-0.1-0.1-0.2-0.2l0,0l0,0l-0.6-0.3L29,50.7l-0.1-0.1h0l0,0v0
		c-0.2-0.1-0.3-0.1-0.4,0c0,0-0.1,0.1-0.1,0.2c-0.1,0.1-0.1,0.2-0.1,0.3l0,0.1c0,0.1,0,0.2,0.1,0.3C28.3,51.5,28.4,51.6,28.4,51.6z"
		/>
	<path class="st1" d="M25.9,53.1L25.9,53.1l0.1,0.1l0.7,0.4l0,0c0.1,0,0.1,0.1,0.2,0.1c0.1,0,0.2-0.1,0.2-0.1c0,0,0,0,0.1-0.1
		l6.6,3.9l0,2.4h0.4l0-2.6l-6.9-4c0,0,0,0,0,0l0-0.1c0-0.1,0-0.2-0.1-0.3c-0.1-0.1-0.1-0.1-0.2-0.2l0,0v0l-0.6-0.3l-0.1-0.1
		l-0.1-0.1v0c-0.2-0.1-0.3-0.1-0.4,0c0,0-0.1,0.1-0.1,0.2c-0.1,0.1-0.1,0.2-0.1,0.3l0,0.1c0,0.1,0,0.2,0.1,0.3
		C25.8,53,25.9,53,25.9,53.1z"/>
	<path class="st1" d="M23.5,54.5L23.5,54.5l0.1,0.1l0.7,0.4l0,0c0.1,0,0.1,0.1,0.2,0.1c0.1,0,0.2-0.1,0.2-0.1c0,0,0,0,0.1-0.1
		l4.3,2.5v2.3h0.4v-2.5L25,54.6c0,0,0,0,0,0l0-0.1c0-0.1,0-0.2-0.1-0.3c-0.1-0.1-0.1-0.1-0.2-0.2l0,0v0l-0.6-0.3L24,53.6l-0.1-0.1
		l0,0l0,0v0c-0.2-0.1-0.3-0.1-0.4,0c0,0-0.1,0.1-0.1,0.2c-0.1,0.1-0.1,0.2-0.1,0.3l0,0.1c0,0.1,0,0.2,0.1,0.3
		C23.4,54.4,23.4,54.5,23.5,54.5z"/>
	<path class="st1" d="M21,56L21,56l0.1,0.1l0.7,0.4l0,0c0.1,0,0.1,0.1,0.2,0.1c0.1,0,0.2-0.1,0.2-0.1c0,0,0,0,0.1-0.1l3.5,2l0,1.3
		h0.4l0-1.5L22.5,56c0,0,0,0,0,0l0-0.1c0-0.1,0-0.2-0.1-0.3c-0.1-0.1-0.1-0.1-0.2-0.2l0,0l0,0l-0.6-0.3l-0.1-0.1L21.4,55h0l0,0l0,0
		c-0.2-0.1-0.3-0.1-0.4,0c0,0-0.1,0.1-0.1,0.2c-0.1,0.1-0.1,0.2-0.1,0.3l0,0.1c0,0.1,0,0.2,0.1,0.3C20.9,55.9,21,55.9,21,56z"/>
	<path class="st1" d="M-30.6,59.7l10.1-5.5l4,0l9.5-5.2h6.2l2.5-1.4c0,0,0.1,0.1,0.1,0.1c0,0,0.1,0.1,0.2,0.1c0.1,0,0.2,0,0.2-0.1
		l0,0L3,47.4l0.1-0.1l0,0c0.1,0,0.1-0.1,0.2-0.2c0,0,0.1-0.1,0.1-0.3l0-0.1c0-0.1,0-0.1-0.1-0.3c-0.1-0.1-0.1-0.2-0.1-0.2
		c-0.1-0.1-0.3-0.1-0.4,0v0l-0.1,0.1l-0.1,0.1l-0.6,0.3v0l0,0c-0.1,0-0.1,0.1-0.2,0.2c0,0.1-0.1,0.1-0.1,0.3l0,0.1c0,0,0,0,0,0
		l-2.4,1.4H-7l-9.5,5.2l-4,0l-10.8,5.8H-30.6z"/>
	<path class="st1" d="M-18,59.7l15.2-8.3h3.2l3.8-2.2c0,0,0.1,0.1,0.1,0.1c0,0,0.1,0.1,0.2,0.1c0.1,0,0.2,0,0.2-0.1l0,0l0.7-0.4
		l0.1-0.1v0c0.1,0,0.1-0.1,0.2-0.2c0,0,0.1-0.1,0.1-0.3l0-0.1c0-0.1,0-0.1-0.1-0.3c-0.1-0.1-0.1-0.2-0.1-0.2c-0.1-0.1-0.3-0.1-0.4,0
		v0l0,0h0L5,47.9L4.9,48l-0.6,0.3v0l0,0v0c-0.1,0-0.1,0.1-0.2,0.2c0,0.1-0.1,0.1-0.1,0.3l0,0.1c0,0,0,0,0,0L0.3,51h-3.2l-15.8,8.7
		H-18z"/>
	<path class="st1" d="M6.5,50.3l-16.3,9.4H-9l15.7-9.1c0,0,0.1,0.1,0.1,0.1c0,0,0.1,0.1,0.2,0.1c0.1,0,0.2,0,0.2-0.1l0,0l0.7-0.4
		L8,50.2v0c0.1,0,0.1-0.1,0.2-0.2c0,0,0.1-0.1,0.1-0.3l0-0.1c0-0.1,0-0.1-0.1-0.3c-0.1-0.1-0.1-0.2-0.1-0.2c-0.1-0.1-0.3-0.1-0.4,0
		v0l0,0h0l-0.1,0.1l-0.1,0.1l-0.6,0.3l0,0v0c-0.1,0-0.1,0.1-0.2,0.2c0,0.1-0.1,0.1-0.1,0.3L6.5,50.3C6.5,50.3,6.5,50.3,6.5,50.3z"/>
	<path class="st1" d="M9,51.8l-14.2,8h0.7l13.6-7.6c0,0,0.1,0.1,0.1,0.1c0,0,0.1,0.1,0.2,0.1c0.1,0,0.2,0,0.2-0.1l0,0l0.7-0.4
		l0.1-0.1v0c0.1,0,0.1-0.1,0.2-0.2c0,0,0.1-0.1,0.1-0.3l0-0.1c0-0.1,0-0.1-0.1-0.3c-0.1-0.1-0.1-0.2-0.1-0.2c-0.1-0.1-0.3-0.1-0.4,0
		v0l-0.1,0.1l-0.1,0.1l-0.6,0.3v0l0,0v0c-0.1,0-0.1,0.1-0.2,0.2C9,51.4,9,51.5,9,51.6L9,51.8C9,51.7,9,51.7,9,51.8z"/>
	<path class="st1" d="M4.7,59.7l2.7-1.9l0.1-0.1l0-1.8l4.1-2.4c0,0,0.1,0.1,0.1,0.1c0,0,0.1,0.1,0.2,0.1c0.1,0,0.2,0,0.2-0.1l0,0
		l0.7-0.4l0.1-0.1v0c0.1,0,0.1-0.1,0.2-0.2c0,0,0.1-0.1,0.1-0.3l0-0.1c0-0.1,0-0.1-0.1-0.3c-0.1-0.1-0.1-0.2-0.1-0.2
		c-0.1-0.1-0.3-0.1-0.4,0v0l-0.1,0.1l-0.1,0.1l-0.6,0.3v0l0,0c-0.1,0-0.1,0.1-0.2,0.2c0,0.1-0.1,0.1-0.1,0.3l0,0.1c0,0,0,0,0,0
		l-4.3,2.5l0,1.9l-3.1,2.2H4.7z"/>
	<path class="st1" d="M11.2,59.7h0.4l-0.1-3.3l2.6-1.4c0,0,0.1,0.1,0.1,0.1c0,0,0.1,0.1,0.2,0.1c0.1,0,0.2,0,0.2-0.1l0,0l0.7-0.4
		l0.1-0.1l0,0c0.1,0,0.1-0.1,0.2-0.2c0,0,0.1-0.1,0.1-0.3l0-0.1c0-0.1,0-0.1-0.1-0.3c-0.1-0.1-0.1-0.2-0.1-0.2
		c-0.1-0.1-0.3-0.1-0.4,0v0l0,0h0l-0.1,0.1l-0.1,0.1l-0.6,0.3l0,0l0,0l0,0c-0.1,0-0.1,0.1-0.2,0.2c0,0.1-0.1,0.1-0.1,0.3l0,0.1
		c0,0,0,0,0,0l-2.8,1.6L11.2,59.7z"/>
	<path class="st1" d="M13.2,59.7h0.4l0-1.6l2.9-1.6c0,0,0.1,0.1,0.1,0.1c0,0,0.1,0.1,0.2,0.1c0.1,0,0.2,0,0.2-0.1l0,0l0.7-0.4
		l0.1-0.1v0c0.1,0,0.1-0.1,0.2-0.2c0,0,0.1-0.1,0.1-0.3l0-0.1c0-0.1,0-0.1-0.1-0.3c-0.1-0.1-0.1-0.2-0.1-0.2c-0.1-0.1-0.3-0.1-0.4,0
		v0l0,0l0,0l-0.1,0.1l-0.1,0.1l-0.6,0.3l0,0v0c-0.1,0-0.1,0.1-0.2,0.2c0,0.1-0.1,0.1-0.1,0.3l0,0.1c0,0,0,0,0,0l-3.2,1.8L13.2,59.7z
		"/>
</g>
<g>
	<g>
		<g>
			
				<image style="overflow:visible;" width="377" height="379" xlink:href="20E30DD2.png"  transform="matrix(0.24 0 0 0.24 -0.24 -0.48)">
			</image>
			<g>
				<g class="st2">
					<g class="st3">
						<path class="st1" d="M35.8,45.4c0.6,0.4,0.6,0.9,0,1.3L20,55.9c-0.6,0.4-1.6,0.4-2.2,0l-16-9.2c-0.6-0.4-0.6-0.9,0-1.3
							l15.8-9.2c0.6-0.4,1.6-0.4,2.2,0L35.8,45.4z"/>
					</g>
					<g>
						<path class="st4" d="M35.8,42.9c0.6,0.4,0.6,0.9,0,1.3L20,53.4c-0.6,0.4-1.6,0.4-2.2,0l-16-9.2c-0.6-0.4-0.6-0.9,0-1.3
							l15.8-9.2c0.6-0.4,1.6-0.4,2.2,0L35.8,42.9z"/>
					</g>
					<path class="st5" d="M35.9,44.2L20,53.4c-0.6,0.4-1.6,0.4-2.2,0l-16-9.2c-0.3-0.2-0.5-0.4-0.5-0.6l0,1.8c0,0.2,0.2,0.5,0.5,0.6
						l16,9.2c0.6,0.4,1.6,0.4,2.2,0l15.8-9.2c0.3-0.2,0.5-0.4,0.5-0.6l0-1.8C36.3,43.8,36.2,44,35.9,44.2z"/>
				</g>
			</g>
			<g>
				<g>
					<g>
						<path class="st6" d="M36.6,46c-0.1-0.1-0.1-0.1-0.2-0.2v0l0,0v0l-0.6-0.3l-0.1-0.1l-0.1-0.1l0,0l0,0l0,0v0
							c-0.2-0.1-0.3-0.1-0.4,0c0,0-0.1,0.1-0.1,0.2c-0.1,0.1-0.1,0.2-0.1,0.3l0,0.1c0,0.1,0,0.2,0.1,0.3c0.1,0.1,0.1,0.1,0.2,0.2v0
							l0.1,0.1l0.7,0.4l0,0c0.1,0,0.1,0.1,0.2,0.1c0.1,0,0.2-0.1,0.2-0.1c0,0,0.1-0.1,0.1-0.2c0-0.1,0.1-0.2,0.1-0.2l0-0.1
							C36.6,46.1,36.6,46,36.6,46z"/>
						<g class="st7">
							<path class="st8" d="M36.3,46.6l2.7,1.7l6.8-0.1l0-6.1h-0.3l0,5.9H45l-5.9,0l-2.6-1.7c-0.1-0.1-0.2,0-0.2,0.1
								C36.2,46.4,36.2,46.5,36.3,46.6z"/>
						</g>
					</g>
					<g>
						<path class="st6" d="M31.6,48.9c-0.1-0.1-0.1-0.1-0.2-0.2v0l0,0v0l-0.6-0.3l-0.1-0.1l-0.1-0.1l0,0l0,0v0l0,0
							c-0.2-0.1-0.3-0.1-0.4,0c0,0-0.1,0.1-0.1,0.2C30,48.5,30,48.6,30,48.6l0,0.1c0,0.1,0,0.2,0.1,0.3c0.1,0.1,0.1,0.1,0.2,0.2v0
							l0.1,0.1l0.7,0.4l0,0c0.1,0,0.1,0.1,0.2,0.1c0.1,0,0.2-0.1,0.2-0.1c0,0,0.1-0.1,0.1-0.2c0-0.1,0.1-0.2,0.1-0.2l0-0.1
							C31.7,49,31.7,48.9,31.6,48.9z"/>
						<g class="st7">
							<path class="st8" d="M31.4,49.5l15.1,8.5l0,0h5.3l2.4,1.4h0.7L52,57.6l0,0h-5.3l-15.1-8.4c-0.1,0-0.2,0-0.2,0.1
								C31.2,49.3,31.3,49.4,31.4,49.5z"/>
						</g>
					</g>
					<g>
						<path class="st6" d="M29.2,50.3c-0.1-0.1-0.1-0.1-0.2-0.2v0l0,0v0l-0.6-0.3l-0.1-0.1l-0.1-0.1h0l0,0v0v0
							c-0.2-0.1-0.3-0.1-0.4,0c0,0-0.1,0.1-0.1,0.2c-0.1,0.1-0.1,0.2-0.1,0.3l0,0.1c0,0.1,0,0.2,0.1,0.3c0.1,0.1,0.1,0.1,0.2,0.2v0
							l0.1,0.1l0.7,0.4l0,0c0.1,0,0.1,0.1,0.2,0.1c0.1,0,0.2-0.1,0.2-0.1c0,0,0.1-0.1,0.1-0.2c0-0.1,0.1-0.2,0.1-0.2l0-0.1
							C29.2,50.5,29.2,50.4,29.2,50.3z"/>
						<g class="st7">
							<path class="st8" d="M28.9,50.9l14.4,8.4H44l-14.9-8.7c-0.1,0-0.2,0-0.2,0.1C28.8,50.8,28.8,50.9,28.9,50.9z"/>
						</g>
					</g>
					<g>
						<path class="st6" d="M26.7,51.8c-0.1-0.1-0.1-0.1-0.2-0.2l0,0l0,0v0L26,51.3l-0.1-0.1l-0.1-0.1l0,0l0,0v0v0
							c-0.2-0.1-0.3-0.1-0.4,0c0,0-0.1,0.1-0.1,0.2C25,51.4,25,51.5,25,51.5l0,0.1c0,0.1,0,0.2,0.1,0.3c0.1,0.1,0.1,0.1,0.2,0.2v0
							l0.1,0.1l0.7,0.4l0,0c0.1,0,0.1,0.1,0.2,0.1c0.1,0,0.2-0.1,0.2-0.1c0,0,0.1-0.1,0.1-0.2c0-0.1,0.1-0.2,0.1-0.2l0-0.1
							C26.7,51.9,26.7,51.8,26.7,51.8z"/>
						<g class="st7">
							<path class="st8" d="M26.4,52.4l6.8,4l0,2.6l0.7,0.4h0.7l-1-0.6l0-2.6l-7-4.1c-0.1,0-0.2,0-0.2,0.1
								C26.3,52.2,26.3,52.3,26.4,52.4z"/>
						</g>
					</g>
					<g>
						<path class="st6" d="M24.2,53.2c-0.1-0.1-0.1-0.1-0.2-0.2v0l0,0v0l-0.6-0.3l-0.1-0.1l-0.1-0.1l0,0l0,0v0v0
							c-0.2-0.1-0.3-0.1-0.4,0c0,0-0.1,0.1-0.1,0.2c-0.1,0.1-0.1,0.2-0.1,0.3l0,0.1c0,0.1,0,0.2,0.1,0.3c0.1,0.1,0.1,0.1,0.2,0.2v0
							l0.1,0.1l0.7,0.4l0,0c0.1,0,0.1,0.1,0.2,0.1c0.1,0,0.2-0.1,0.2-0.1c0,0,0.1-0.1,0.1-0.2c0-0.1,0.1-0.2,0.1-0.2l0-0.1
							C24.3,53.4,24.2,53.3,24.2,53.2z"/>
						<g class="st7">
							<path class="st8" d="M24,53.8l4.5,2.6v2.9h0.4v-3.1l-4.6-2.7c-0.1,0-0.2,0-0.2,0.1C23.8,53.7,23.9,53.8,24,53.8z"/>
						</g>
					</g>
					<g>
						<path class="st6" d="M21.7,54.7c-0.1-0.1-0.1-0.1-0.2-0.2v0l0,0l0,0L21,54.2l-0.1-0.1L20.7,54l0,0l0,0v0v0
							c-0.2-0.1-0.3-0.1-0.4,0c0,0-0.1,0.1-0.1,0.2c-0.1,0.1-0.1,0.2-0.1,0.3l0,0.1c0,0.1,0,0.2,0.1,0.3c0.1,0.1,0.1,0.1,0.2,0.2v0
							l0.1,0.1l0.7,0.4l0,0c0.1,0,0.1,0.1,0.2,0.1c0.1,0,0.2-0.1,0.2-0.1c0,0,0.1-0.1,0.1-0.2c0-0.1,0.1-0.2,0.1-0.2l0-0.1
							C21.8,54.8,21.8,54.7,21.7,54.7z"/>
						<g class="st7">
							<path class="st8" d="M21.5,55.3l3.7,2.1l0,1.9h0.4l0-2.1L21.7,55c-0.1,0-0.2,0-0.2,0.1C21.4,55.1,21.4,55.2,21.5,55.3z"/>
						</g>
					</g>
					<g>
						<path class="st6" d="M56.2,45.9c0.1-0.1,0.1-0.1,0.2-0.2v0l0,0v0l0.6-0.3l0.1-0.1l0.1-0.1l0,0l0,0l0,0v0
							c0.2-0.1,0.3-0.1,0.4,0c0,0,0.1,0.1,0.1,0.2c0.1,0.1,0.1,0.2,0.1,0.3l0,0.1c0,0.1,0,0.2-0.1,0.3c-0.1,0.1-0.1,0.1-0.2,0.2v0
							l-0.1,0.1l-0.7,0.4l0,0c-0.1,0-0.1,0.1-0.2,0.1c-0.1,0-0.2-0.1-0.2-0.1c0,0-0.1-0.1-0.1-0.2c0-0.1-0.1-0.2-0.1-0.2l0-0.1
							C56.2,46.1,56.2,46,56.2,45.9z"/>
						<g class="st7">
							<path class="st8" d="M56.5,46.5l-2.7,1.7L47,48.1l0-6.1h0.3l0,5.9h0.5l5.9,0l2.6-1.7c0.1-0.1,0.2,0,0.2,0.1
								C56.6,46.4,56.6,46.5,56.5,46.5z"/>
						</g>
					</g>
				</g>
				<g>
					<g>
						<path class="st6" d="M1,46c0.1-0.1,0.1-0.1,0.2-0.2v0l0,0v0l0.6-0.3l0.1-0.1L2,45.4l0,0l0,0v0v0c0.2-0.1,0.3-0.1,0.4,0
							c0,0,0.1,0.1,0.1,0.2c0.1,0.1,0.1,0.2,0.1,0.3l0,0.1c0,0.1,0,0.2-0.1,0.3c-0.1,0.1-0.1,0.1-0.2,0.2v0l-0.1,0.1l-0.7,0.4l0,0
							c-0.1,0-0.1,0.1-0.2,0.1c-0.1,0-0.2-0.1-0.2-0.1c0,0-0.1-0.1-0.1-0.2c0-0.1-0.1-0.2-0.1-0.2l0-0.1C0.9,46.2,0.9,46.1,1,46z"/>
						<g class="st7">
							<path class="st8" d="M-32.4,59.3l11.2-6.1l4,0l9.5-5.2h6.2l2.7-1.5c0.1,0,0.1-0.2,0.1-0.2s-0.2-0.1-0.2-0.1l-2.6,1.5h-6.2
								l-9.5,5.2l-4,0l-11.9,6.4H-32.4z"/>
						</g>
					</g>
					<g>
						<path class="st6" d="M3.4,47.5c0.1-0.1,0.1-0.1,0.2-0.2l0,0l0,0l0,0L4.2,47l0.1-0.1l0.1-0.1l0,0l0,0v0v0
							c0.2-0.1,0.3-0.1,0.4,0c0,0,0.1,0.1,0.1,0.2c0.1,0.1,0.1,0.2,0.1,0.3l0,0.1c0,0.1,0,0.2-0.1,0.3c-0.1,0.1-0.1,0.1-0.2,0.2v0
							l-0.1,0.1L4,48.3l0,0c-0.1,0-0.1,0.1-0.2,0.1c-0.1,0-0.2-0.1-0.2-0.1c0,0-0.1-0.1-0.1-0.2c0-0.1-0.1-0.2-0.1-0.2l0-0.1
							C3.4,47.6,3.4,47.5,3.4,47.5z"/>
						<g class="st7">
							<path class="st8" d="M-19.8,59.3l16.3-8.9h3.2l4-2.3c0.1,0,0.1-0.2,0.1-0.2c0-0.1-0.2-0.1-0.2-0.1L-0.4,50h-3.2l-16.9,9.3
								H-19.8z"/>
						</g>
					</g>
					<g>
						<path class="st6" d="M5.9,48.9C6,48.8,6,48.8,6.1,48.8v0l0,0v0l0.6-0.3l0.1-0.1l0.1-0.1l0,0l0,0l0,0v0c0.2-0.1,0.3-0.1,0.4,0
							c0,0,0.1,0.1,0.1,0.2c0.1,0.1,0.1,0.2,0.1,0.3l0,0.1c0,0.1,0,0.2-0.1,0.3c-0.1,0.1-0.1,0.1-0.2,0.2v0l-0.1,0.1l-0.7,0.4l0,0
							c-0.1,0-0.1,0.1-0.2,0.1c-0.1,0-0.2-0.1-0.2-0.1c0,0-0.1-0.1-0.1-0.2c0-0.1-0.1-0.2-0.1-0.2l0-0.1C5.9,49.1,5.9,49,5.9,48.9z"
							/>
						<g class="st7">
							<path class="st8" d="M-10.7,59.3l16.9-9.8c0.1,0,0.1-0.2,0.1-0.2c0-0.1-0.2-0.1-0.2-0.1l-17.4,10.1H-10.7z"/>
						</g>
					</g>
					<g>
						<path class="st6" d="M8.4,50.4c0.1-0.1,0.1-0.1,0.2-0.2v0l0,0l0,0l0.6-0.3l0.1-0.1l0.1-0.1l0,0l0,0v0v0c0.2-0.1,0.3-0.1,0.4,0
							c0,0,0.1,0.1,0.1,0.2C10,50,10,50.1,10,50.2l0,0.1c0,0.1,0,0.2-0.1,0.3c-0.1,0.1-0.1,0.1-0.2,0.2v0l-0.1,0.1L9,51.2l0,0
							c-0.1,0-0.1,0.1-0.2,0.1c-0.1,0-0.2-0.1-0.2-0.1c0,0-0.1-0.1-0.1-0.2c0-0.1-0.1-0.2-0.1-0.2l0-0.1C8.3,50.5,8.4,50.4,8.4,50.4
							z"/>
						<g class="st7">
							<path class="st8" d="M-6.2,59.3L8.6,51c0.1,0,0.1-0.2,0.1-0.2c0-0.1-0.2-0.1-0.2-0.1L-7,59.3H-6.2z"/>
						</g>
					</g>
					<g>
						<path class="st6" d="M10.8,51.8c0.1-0.1,0.1-0.1,0.2-0.2v0l0,0v0l0.6-0.3l0.1-0.1l0.1-0.1l0,0l0,0l0,0v0
							c0.2-0.1,0.3-0.1,0.4,0c0,0,0.1,0.1,0.1,0.2c0.1,0.1,0.1,0.2,0.1,0.3l0,0.1c0,0.1,0,0.2-0.1,0.3c-0.1,0.1-0.1,0.1-0.2,0.2v0
							l-0.1,0.1l-0.7,0.4l0,0c-0.1,0-0.1,0.1-0.2,0.1c-0.1,0-0.2-0.1-0.2-0.1c0,0-0.1-0.1-0.1-0.2c0-0.1-0.1-0.2-0.1-0.2l0-0.1
							C10.8,52,10.8,51.9,10.8,51.8z"/>
						<g class="st7">
							<path class="st8" d="M3.1,59.3l3.7-2.6l0-1.8l4.3-2.5c0.1,0,0.1-0.2,0.1-0.2c0-0.1-0.2-0.1-0.2-0.1l-4.5,2.6l0,1.9l-3.9,2.7
								H3.1z"/>
						</g>
					</g>
					<g>
						<path class="st6" d="M13.3,53.3c0.1-0.1,0.1-0.1,0.2-0.2v0l0,0v0l0.6-0.3l0.1-0.1l0.1-0.1h0l0,0v0v0c0.2-0.1,0.3-0.1,0.4,0
							c0,0,0.1,0.1,0.1,0.2C15,52.9,15,53,15,53.1l0,0.1c0,0.1,0,0.2-0.1,0.3c-0.1,0.1-0.1,0.1-0.2,0.2v0l-0.1,0.1l-0.7,0.4l0,0
							c-0.1,0-0.1,0.1-0.2,0.1c-0.1,0-0.2-0.1-0.2-0.1c0,0-0.1-0.1-0.1-0.2c0-0.1-0.1-0.2-0.1-0.2l0-0.1
							C13.3,53.4,13.3,53.4,13.3,53.3z"/>
						<g class="st7">
							<path class="st8" d="M10.1,59.3h0.7l0,0l0.1-0.1l-0.1-3.8l2.8-1.5c0.1,0,0.1-0.2,0.1-0.2c0-0.1-0.2-0.1-0.2-0.1l-3,1.6
								l0.1,3.8L10.1,59.3z"/>
						</g>
					</g>
					<g>
						<path class="st6" d="M15.8,54.8c0.1-0.1,0.1-0.1,0.2-0.2l0,0l0,0v0l0.6-0.3l0.1-0.1l0.1-0.1l0,0l0,0v0l0,0
							c0.2-0.1,0.3-0.1,0.4,0c0,0,0.1,0.1,0.1,0.2c0.1,0.1,0.1,0.2,0.1,0.3l0,0.1c0,0.1,0,0.2-0.1,0.3c-0.1,0.1-0.1,0.1-0.2,0.2v0
							l-0.1,0.1l-0.7,0.4l0,0c-0.1,0-0.1,0.1-0.2,0.1c-0.1,0-0.2-0.1-0.2-0.1c0,0-0.1-0.1-0.1-0.2c0-0.1-0.1-0.2-0.1-0.2l0-0.1
							C15.7,54.9,15.8,54.8,15.8,54.8z"/>
						<g class="st7">
							<path class="st8" d="M12.9,59.3l0-2.2l3.1-1.7c0.1,0,0.1-0.2,0.1-0.2c0-0.1-0.2-0.1-0.2-0.1l-3.3,1.8l0,2.4H12.9z"/>
						</g>
					</g>
				</g>
			</g>
		</g>
	</g>
</g>
<g>
	<g>
		<g class="st2">
			<g>
				<polygon class="st9" points="49,22.8 49.9,25.4 48.7,31.3 47.8,28.6 				"/>
			</g>
			<g>
				<polygon class="st10" points="47.8,28.6 48.7,31.3 47.3,31.3 46.4,28.6 				"/>
			</g>
			<g>
				<polygon class="st11" points="49,22.8 47.8,28.6 46.4,28.6 47.6,22.8 				"/>
			</g>
		</g>
	</g>
</g>
<path class="st12" d="M53.2,35c0,3.3-3.3,6.1-7.3,6.1s-7.3-2.7-7.3-6.1c0-3.3,2.8-3,6.8-3S53.2,31.7,53.2,35z"/>
<g>
	<g>
		<g class="st2">
			<g>
				<polygon class="st13" points="44.3,27.1 44.8,28.4 44.5,29.9 44,28.6 				"/>
			</g>
			<g class="st2">
				<defs>
					<path id="SVGID_1_" class="st2" d="M39.4,38.1l-0.5-1.3c-0.3-0.8-0.4-1.7-0.2-2.6c0.5-2.4,2.6-4.5,5.3-5.6l0.5,1.3
						c-2.7,1.1-4.8,3.2-5.3,5.6C39,36.4,39.1,37.3,39.4,38.1z"/>
				</defs>
				<clipPath id="SVGID_2_">
					<use xlink:href="#SVGID_1_"  style="overflow:visible;"/>
				</clipPath>
				<g class="st14">
					<path class="st15" d="M44,28.6l0.5,1.3C44.3,30,44.2,30,44,30.1l-0.5-1.3C43.7,28.8,43.8,28.7,44,28.6"/>
					<path class="st16" d="M43.5,28.9l0.5,1.3c-0.2,0.1-0.4,0.2-0.7,0.3l-0.5-1.3C43.1,29.1,43.3,29,43.5,28.9"/>
					<path class="st17" d="M42.9,29.2l0.5,1.3c-0.2,0.1-0.4,0.3-0.7,0.4l-0.5-1.3C42.4,29.4,42.6,29.3,42.9,29.2"/>
					<path class="st18" d="M42.2,29.6l0.5,1.3c-0.2,0.2-0.5,0.3-0.7,0.5l-0.5-1.3C41.7,29.9,41.9,29.7,42.2,29.6"/>
					<path class="st19" d="M41.5,30.1l0.5,1.3c-0.3,0.2-0.5,0.4-0.8,0.7l-0.5-1.3C41,30.5,41.2,30.3,41.5,30.1"/>
					<path class="st20" d="M40.7,30.8l0.5,1.3c-1,1-1.7,2.1-2,3.4l-0.5-1.3C39,32.9,39.7,31.7,40.7,30.8"/>
					<path class="st19" d="M38.7,34.2l0.5,1.3c0,0,0,0,0,0.1c-0.1,0.3-0.1,0.5-0.1,0.8L38.6,35C38.6,34.8,38.7,34.5,38.7,34.2
						C38.7,34.2,38.7,34.2,38.7,34.2"/>
					<path class="st18" d="M38.6,35l0.5,1.3c0,0.2,0,0.4,0,0.7l-0.5-1.3C38.6,35.5,38.6,35.2,38.6,35"/>
					<path class="st17" d="M38.6,35.7l0.5,1.3c0,0.2,0,0.4,0.1,0.6l-0.5-1.3C38.7,36.1,38.7,35.9,38.6,35.7"/>
					<path class="st16" d="M38.7,36.2l0.5,1.3c0,0.2,0.1,0.4,0.2,0.5l-0.5-1.3C38.8,36.6,38.8,36.4,38.7,36.2"/>
					<path class="st15" d="M38.9,36.8l0.5,1.3c0,0,0,0,0,0L38.9,36.8C38.9,36.8,38.9,36.8,38.9,36.8"/>
				</g>
			</g>
			<g class="st2">
				<defs>
					<path id="SVGID_3_" class="st2" d="M53.6,31.2l0.5,1.3c-0.4-1-1.1-1.8-2.1-2.4c-0.1-0.1-0.2-0.1-0.3-0.2l-0.5-1.3
						c0.1,0.1,0.2,0.1,0.3,0.2C52.5,29.4,53.2,30.2,53.6,31.2z"/>
				</defs>
				<clipPath id="SVGID_4_">
					<use xlink:href="#SVGID_3_"  style="overflow:visible;"/>
				</clipPath>
				<g class="st21">
					<path class="st22" d="M53.6,31.2l0.5,1.3c-0.4-1-1.1-1.8-2.1-2.4c-0.1-0.1-0.2-0.1-0.3-0.2l-0.5-1.3c0.1,0.1,0.2,0.1,0.3,0.2
						C52.5,29.4,53.2,30.2,53.6,31.2"/>
				</g>
			</g>
			<g class="st2">
				<defs>
					<path id="SVGID_5_" class="st2" d="M55.1,30.5l0.5,1.3c0.4,0.9,0.4,2,0.2,3.1c-0.8,4.1-5.5,7.5-10.5,7.6
						c-1.9,0.1-3.5-0.4-4.8-1.1c-1.2-0.7-2.1-1.7-2.6-2.9l-0.5-1.3c0.5,1.2,1.4,2.2,2.6,2.9c1.3,0.7,2.9,1.1,4.8,1.1
						c5-0.1,9.7-3.5,10.5-7.6C55.5,32.5,55.4,31.4,55.1,30.5z"/>
				</defs>
				<clipPath id="SVGID_6_">
					<use xlink:href="#SVGID_5_"  style="overflow:visible;"/>
				</clipPath>
				<g class="st23">
					<path class="st15" d="M55.1,30.5l0.5,1.3c0,0,0,0,0,0.1L55.1,30.5C55.1,30.5,55.1,30.5,55.1,30.5"/>
					<path class="st16" d="M55.1,30.6l0.5,1.3c0.1,0.2,0.1,0.4,0.2,0.6l-0.5-1.3C55.2,31,55.2,30.8,55.1,30.6"/>
					<path class="st17" d="M55.3,31.2l0.5,1.3c0.1,0.2,0.1,0.5,0.1,0.7l-0.5-1.3C55.4,31.6,55.3,31.4,55.3,31.2"/>
					<path class="st18" d="M55.4,31.9l0.5,1.3c0,0.3,0,0.5,0,0.8l-0.5-1.3C55.4,32.4,55.4,32.1,55.4,31.9"/>
					<path class="st19" d="M55.4,32.7l0.5,1.3c0,0.3-0.1,0.6-0.1,0.9c0,0,0,0.1,0,0.1l-0.5-1.3c0,0,0-0.1,0-0.1
						C55.3,33.3,55.4,33,55.4,32.7"/>
					<path class="st20" d="M55.3,33.7l0.5,1.3c-0.3,1.5-1.2,2.9-2.4,4.1l-0.5-1.3C54.1,36.6,54.9,35.2,55.3,33.7"/>
					<path class="st19" d="M52.9,37.8l0.5,1.3c-0.3,0.3-0.6,0.6-0.9,0.8L52,38.6C52.3,38.3,52.6,38.1,52.9,37.8"/>
					<path class="st18" d="M52,38.6l0.5,1.3c-0.3,0.2-0.5,0.4-0.8,0.6l-0.5-1.3C51.4,39,51.7,38.8,52,38.6"/>
					<path class="st17" d="M51.1,39.2l0.5,1.3c-0.3,0.2-0.5,0.3-0.8,0.5l-0.5-1.3C50.6,39.5,50.9,39.4,51.1,39.2"/>
					<path class="st16" d="M50.3,39.7l0.5,1.3c-0.3,0.1-0.5,0.3-0.8,0.4l-0.5-1.3C49.8,39.9,50.1,39.8,50.3,39.7"/>
					<path class="st15" d="M49.5,40.1l0.5,1.3c-0.3,0.1-0.5,0.2-0.8,0.3l-0.5-1.3C49,40.3,49.3,40.2,49.5,40.1"/>
					<path class="st24" d="M48.7,40.4l0.5,1.3c-0.3,0.1-0.5,0.2-0.8,0.3l-0.5-1.3C48.2,40.6,48.5,40.5,48.7,40.4"/>
					<path class="st25" d="M47.9,40.7l0.5,1.3c-0.3,0.1-0.6,0.2-0.9,0.2L47,40.9C47.3,40.9,47.6,40.8,47.9,40.7"/>
					<path class="st26" d="M47,40.9l0.5,1.3c-0.3,0.1-0.7,0.1-1,0.2L46,41.1C46.4,41.1,46.7,41,47,40.9"/>
					<path class="st27" d="M46,41.1l0.5,1.3c-0.4,0.1-0.8,0.1-1.2,0.1l-0.5-1.3C45.2,41.2,45.6,41.2,46,41.1"/>
					<path class="st22" d="M44.8,41.2l0.5,1.3c0,0,0,0,0,0c-1.9,0.1-3.5-0.4-4.8-1.1c-1.2-0.7-2.1-1.7-2.6-2.9l-0.5-1.3
						c0.5,1.2,1.4,2.2,2.6,2.9C41.3,40.9,42.9,41.3,44.8,41.2C44.8,41.2,44.8,41.2,44.8,41.2"/>
				</g>
			</g>
			<g>
				<path class="st28" d="M52.5,27.6c2.2,1.2,3.3,3.5,2.8,6c-0.8,4.1-5.5,7.5-10.5,7.6c-1.9,0.1-3.5-0.4-4.8-1.1
					c-2.2-1.2-3.3-3.4-2.8-6c0.6-3.1,3.5-5.8,7.1-7L44,28.6c-2.7,1.1-4.8,3.2-5.3,5.6c-0.4,2.1,0.5,4,2.3,5c1.1,0.6,2.4,0.9,4,0.9
					c4.1-0.1,8.1-3,8.8-6.3c0.4-2.1-0.5-4-2.3-5c-0.1-0.1-0.2-0.1-0.3-0.2l0.3-1.5C51.8,27.2,52.2,27.4,52.5,27.6z"/>
			</g>
		</g>
	</g>
</g>
<polygon class="st12" points="83.1,48.3 59.9,57.5 59.9,39.5 79.5,45.5 "/>
<g>
	<g>
		<g class="st2">
			<g>
				<polygon class="st29" points="81.8,48.1 81.6,49.6 60.5,39.5 60.7,38 				"/>
			</g>
			<g>
				<polygon class="st30" points="57.3,59.5 57.2,61 57.4,35.3 57.5,33.9 				"/>
			</g>
			<g>
				<polygon class="st31" points="88.4,48.7 88.3,50.2 57.2,61 57.3,59.5 				"/>
			</g>
			<g>
				<path class="st32" d="M57.5,33.9l30.9,14.9L57.3,59.5L57.5,33.9z M60.7,38l-0.1,17.5l21.2-7.4L60.7,38"/>
			</g>
		</g>
	</g>
</g>
<path class="st6" d="M46.6,41.8c-0.1,0.1-0.1,0.2-0.1,0.2l0,0l0,0l0,0l-0.1,0.7l0,0.2l0,0.2l0,0l0,0l0,0h0c0,0.2,0.1,0.3,0.2,0.4
	c0,0,0.1,0.1,0.2,0.1c0.1,0,0.2,0,0.3,0l0.1,0c0.1-0.1,0.2-0.1,0.2-0.2c0.1-0.1,0.1-0.2,0.1-0.2l0,0l0-0.2l0.1-0.8v0
	c0-0.1,0-0.2,0-0.2c-0.1-0.1-0.1-0.2-0.2-0.2c0,0-0.1-0.1-0.2-0.1c-0.1,0-0.2,0-0.2,0l-0.1,0C46.7,41.7,46.6,41.7,46.6,41.8z"/>
<path class="st6" d="M45.9,43.3c0.1-0.1,0.1-0.2,0.1-0.2l0,0l0,0l0,0l0-0.7l0-0.2l0-0.2l0,0l0,0l0,0h0c0-0.2-0.1-0.3-0.2-0.4
	c0,0-0.1-0.1-0.2-0.1c-0.1,0-0.2,0-0.3,0.1l-0.1,0c-0.1,0.1-0.2,0.1-0.2,0.2C45,42.1,45,42.1,45,42.2l0,0l0,0.2l0,0.8l0,0
	c0,0.1,0,0.2,0.1,0.2c0.1,0.1,0.1,0.1,0.2,0.2c0,0,0.1,0.1,0.2,0c0.1,0,0.2,0,0.2-0.1l0.1,0C45.8,43.4,45.9,43.4,45.9,43.3z"/>
<path class="st33" d="M35.1,46.8L35.1,46.8l0.1,0.1l0.7,0.4l0,0c0.1,0,0.1,0.1,0.2,0.1c0.1,0,0.2-0.1,0.2-0.1c0,0,0,0,0.1-0.1
	l3.1,1.9l6.3,0l1.5,0.1c-0.3-0.2-0.1-2.9-0.1-3v-3.7l-0.5,0l-0.1,6.2l-7-0.2l-3-1.7c0,0,0,0,0,0l0-0.1c0-0.1,0-0.2-0.1-0.3
	c-0.1-0.1-0.1-0.1-0.2-0.2l0,0l0,0L35.8,46l-0.1-0.1l-0.1-0.1h0l0,0l0,0c-0.2-0.1-0.3-0.1-0.4,0c0,0-0.1,0.1-0.1,0.2
	c-0.1,0.1-0.1,0.2-0.1,0.3l0,0.1c0,0.1,0,0.2,0.1,0.3C35,46.7,35.1,46.7,35.1,46.8z"/>
<path class="st6" d="M57,45.7c-0.1,0-0.2,0-0.2,0l0,0l0,0l0,0l-0.6,0.3L56,46.1l-0.1,0.1l0,0l0,0l0,0l0,0c-0.2,0.1-0.2,0.3-0.2,0.4
	c0,0,0,0.1,0.1,0.2c0.1,0.1,0.1,0.2,0.2,0.2l0.1,0.1c0.1,0.1,0.2,0.1,0.2,0.1c0.1,0,0.2,0,0.2,0l0,0l0.1-0.1l0.7-0.4l0,0
	c0.1,0,0.1-0.1,0.2-0.2c0.1-0.1,0.1-0.2,0.1-0.2c0,0,0-0.1-0.1-0.2c-0.1-0.1-0.1-0.2-0.2-0.2l-0.1-0.1C57.1,45.8,57,45.7,57,45.7z"
	/>
<g>
	<text transform="matrix(1 0 0 1 12.522 45.72)" class="st34 st35 st36">BITS</text>
</g>
<text transform="matrix(1 0 0 1 40.3688 38.3294)" class="st4 st35 st36">ON</text>
<text transform="matrix(0.8095 0 0 1 61.084 50.2883)" class="st4 st35 st36">BOBS</text>
<path class="st37" d="M57.6,59l-16.3-8.9h-3.2l-4-2.3c-0.1,0-0.1-0.2-0.1-0.2c0-0.1,0.2-0.1,0.2-0.1l3.9,2.3h3.2L58.3,59H57.6z"/>
<path class="st6" d="M35,47.5c-0.1-0.1-0.1-0.1-0.2-0.2v0l0,0v0L34.3,47l-0.1-0.1L34,46.8l0,0l0,0v0l0,0c-0.2-0.1-0.3-0.1-0.4,0
	c0,0-0.1,0.1-0.1,0.2c-0.1,0.1-0.1,0.2-0.1,0.3l0,0.1c0,0.1,0,0.2,0.1,0.3c0.1,0.1,0.1,0.1,0.2,0.2v0l0.1,0.1l0.7,0.4l0,0
	c0.1,0,0.1,0.1,0.2,0.1c0.1,0,0.2-0.1,0.2-0.1c0,0,0.1-0.1,0.1-0.2c0-0.1,0.1-0.2,0.1-0.2l0-0.1C35.1,47.6,35,47.6,35,47.5z"/>
</svg>
