<?xml version="1.0" encoding="utf-8"?>
<!-- Generator: Adobe Illustrator 24.3.0, SVG Export Plug-In . SVG Version: 6.00 Build 0)  -->
<svg version="1.1" id="Layer_1" xmlns="http://www.w3.org/2000/svg" xmlns:xlink="http://www.w3.org/1999/xlink" x="0px" y="0px"
	 viewBox="0 0 90 90" style="enable-background:new 0 0 90 90;" xml:space="preserve">
<style type="text/css">
	.st0{fill:#42A9DF;stroke:#42A9DF;stroke-miterlimit:10;}
	.st1{fill:#142129;}
	.st2{fill:#FBD124;}
	.st3{fill:#FCB536;stroke:#231F20;stroke-miterlimit:10;}
	.st4{opacity:0.5;fill:#FFFFFF;stroke:#000000;stroke-miterlimit:10;enable-background:new    ;}
	.st5{fill:none;stroke:#231F20;stroke-miterlimit:10;}
	.st6{fill:#2D4472;}
	.st7{fill:none;stroke:#2D4573;stroke-miterlimit:10;}
</style>
<ellipse class="st0" cx="45" cy="45.5" rx="45.6" ry="45.7"/>
<rect x="13.1" y="25.6" class="st1" width="64.8" height="10.1"/>
<path class="st2" d="M13.1,14.2"/>
<g>
	<path class="st3" d="M13.2,63.7c0,2.8,2.3,5.1,5.1,5.1H73c2.8,0,5.1-2.3,5.1-5.1V36.1l-65-0.1v27.7H13.2z"/>
	<path class="st3" d="M73,21.3H18.3c-2.8,0-5.1,2.3-5.1,5.1v3.3l65-0.2v-3.1C78.1,23.6,75.8,21.3,73,21.3z"/>
</g>
<path class="st4" d="M48.4,46.9H25.7c-1.7,0-3.1-1.4-3.1-3.1l0,0c0-1.7,1.4-3.1,3.1-3.1h22.7c1.7,0,3.1,1.4,3.1,3.1l0,0
	C51.5,45.5,50.1,46.9,48.4,46.9z"/>
<path class="st4" d="M60.4,57.1H26.6c-1.7,0-3.1-1.4-3.1-3.1l0,0c0-1.7,1.4-3.1,3.1-3.1h33.9c1.7,0,3.1,1.4,3.1,3.1l0,0
	C63.5,55.8,62.1,57.1,60.4,57.1z"/>
<path class="st3" d="M77.1,79.4h-7.5c-1.1,0-2.1-0.9-2.1-2.1v-8.4c0-1.1,0.9-2.1,2.1-2.1h7.5c1.1,0,2.1,0.9,2.1,2.1v8.4
	C79.2,78.4,78.2,79.4,77.1,79.4z"/>
<path class="st5" d="M70.1,66.5c0-2.4,1.5-4.4,3.3-4.4s3.3,2,3.3,4.4"/>
<ellipse class="st6" cx="73.4" cy="73.9" rx="1.4" ry="2.9"/>
<polyline class="st7" points="13.2,29.7 13.2,36 78.1,36.1 78.1,29.5 "/>
</svg>
