<?xml version="1.0" encoding="utf-8"?>
<!-- Generator: Adobe Illustrator 24.3.0, SVG Export Plug-In . SVG Version: 6.00 Build 0)  -->
<svg version="1.1" id="Layer_1" xmlns="http://www.w3.org/2000/svg" xmlns:xlink="http://www.w3.org/1999/xlink" x="0px" y="0px"
	 viewBox="0 0 90 90" style="enable-background:new 0 0 90 90;" xml:space="preserve">
<style type="text/css">
	.st0{fill:#FBD124;}
	.st1{fill:#E2C062;stroke:#2D4573;stroke-miterlimit:10;}
	.st2{opacity:0.5;fill:#FFFFFF;stroke:#000000;stroke-miterlimit:10;}
	.st3{fill:#E2C062;stroke:#2E3192;stroke-miterlimit:10;}
	.st4{fill:none;stroke:#2E3192;stroke-miterlimit:10;}
	.st5{fill:#2D4472;}
	.st6{fill:none;stroke:#2D4573;stroke-miterlimit:10;}
	.st7{fill:#FFFFFF;}
</style>
<path class="st0" d="M13.1,14.2"/>
<g>
	<path class="st1" d="M13.2,63.7c0,2.8,2.3,5.1,5.1,5.1H73c2.8,0,5.1-2.3,5.1-5.1V36.1l-65-0.1V63.7z"/>
	<path class="st1" d="M73,21.3H18.3c-2.8,0-5.1,2.3-5.1,5.1v3.3l65-0.2v-3.1C78.1,23.6,75.8,21.3,73,21.3z"/>
</g>
<path class="st2" d="M48.4,46.9H25.7c-1.7,0-3.1-1.4-3.1-3.1v0c0-1.7,1.4-3.1,3.1-3.1h22.7c1.7,0,3.1,1.4,3.1,3.1v0
	C51.5,45.5,50.1,46.9,48.4,46.9z"/>
<path class="st2" d="M60.4,57.1H26.6c-1.7,0-3.1-1.4-3.1-3.1v0c0-1.7,1.4-3.1,3.1-3.1h33.9c1.7,0,3.1,1.4,3.1,3.1v0
	C63.5,55.8,62.1,57.1,60.4,57.1z"/>
<path class="st3" d="M77.1,79.4h-7.5c-1.1,0-2.1-0.9-2.1-2.1v-8.4c0-1.1,0.9-2.1,2.1-2.1h7.5c1.1,0,2.1,0.9,2.1,2.1v8.4
	C79.2,78.4,78.2,79.4,77.1,79.4z"/>
<path class="st4" d="M70.1,66.5c0-2.4,1.5-4.4,3.3-4.4c1.8,0,3.3,2,3.3,4.4"/>
<ellipse class="st5" cx="73.4" cy="73.9" rx="1.4" ry="2.9"/>
<polyline class="st6" points="13.2,29.7 13.2,36 78.1,36.1 78.1,29.5 "/>
<path class="st7" d="M13.6,44.1c0.4,1.9,1.1,4.2,2.1,6.6c1.6,3.9,3.6,6.7,4.7,8.1c1,1.3,2.5,3.2,4.7,5.1c2.3,2,4.5,3.5,6.3,4.5
	l-12.5,0.3c-0.7,0-1.9,0-3-0.8c-1.9-1.2-2.7-3.8-2.1-6.5L13.6,44.1z"/>
</svg>
